<svg xmlns="http://www.w3.org/2000/svg" viewBox="0 0 24 24" role="img" aria-hidden="true" focusable="false">
  <circle cx="12" cy="12" r="12" fill="#000000" />
  <path d="M12.186 19.5h-.006c-2.316-.016-4.069-.77-5.254-2.246C5.74 15.8 5.2 14.052 5.18 12c.02-2.055.56-3.804 1.742-5.267C8.104 5.253 9.86 4.5 12.178 4.5h.012c1.64.012 3.01.433 4.08 1.252.99.76 1.678 1.846 2.05 3.213l-1.323.37c-.717-2.32-2.35-3.507-5.01-3.525-1.758.014-3.082.566-3.948 1.613-.973 1.165-1.47 2.74-1.488 4.577.018 1.838.515 3.413 1.488 4.579.868 1.047 2.192 1.599 3.95 1.613 1.582-.012 2.629-.373 3.503-1.207 1.018-.996.999-2.213.674-2.957-.207-.437-.54-.8-1.01-1.077-.12.873-.386 1.58-.799 2.116-.552.686-1.335 1.06-2.322 1.115-.75.04-1.472-.136-2.034-.499-.664-.43-1.076-1.087-1.12-1.85-.042-.74.261-1.427.849-1.928.578-.5 1.384-.754 2.343-.809.584-.031 1.19 0 1.812.086-.076-.466-.227-.837-.454-1.105-.31-.368-.793-.555-1.43-.559h-.02c-.512 0-1.208.145-1.649.829l-1.22-.82c.6-.89 1.576-1.382 2.744-1.382h.028c1.957.013 3.124 1.211 3.243 3.304.066.028.133.057.198.087.916.43 1.586 1.083 1.942 1.889.492 1.121.536 2.951-.953 4.409-.875.857-2.17 1.313-3.861 1.324Zm.618-7.295c-.147 0-.295.004-.448.013-1.116.063-1.811.575-1.769 1.3.04.761.884 1.115 1.694 1.072.754-.04 1.717-.33 1.88-2.252a6.4 6.4 0 0 0-1.357-.133z" fill="#ffffff" />
</svg>
