<svg xmlns="http://www.w3.org/2000/svg" width="400" height="400" fill="none">
  <rect width="400" height="400" fill="#1DA1F2" rx="8"/>
  <path fill="#fff" d="M200 120c-44.183 0-80 35.817-80 80s35.817 80 80 80 80-35.817 80-80-35.817-80-80-80zm36.568 61.13c.024.53.024 1.06.024 1.59 0 16.212-12.34 34.9-34.9 34.9-6.943 0-13.398-2.036-18.832-5.52 1.013.118 1.978.165 3.014.165 5.826 0 11.193-1.978 15.46-5.308-5.473-.094-10.087-3.72-11.676-8.687.777.118 1.555.188 2.356.188 1.13 0 2.262-.142 3.32-.424-5.708-1.154-10.016-6.202-10.016-12.263v-.165c1.66.942 3.603 1.508 5.662 1.578-3.344-2.238-5.544-6.06-5.544-10.393 0-2.309.613-4.43 1.684-6.273 6.155 7.568 15.366 12.546 25.736 13.076-.212-.942-.33-1.931-.33-2.92 0-6.885 5.59-12.522 12.522-12.522 3.603 0 6.85 1.508 9.135 3.956 2.85-.565 5.52-1.602 7.922-3.038-.942 2.897-2.92 5.332-5.52 6.885 2.52-.283 4.97-.966 7.238-1.955-1.696 2.497-3.815 4.688-6.273 6.438z"/>
</svg>
